<svg width="572" height="588" viewBox="0 0 572 588" fill="none" xmlns="http://www.w3.org/2000/svg">
<path d="M441.334 0.5625H388.843H183.156H130.664H0.0292969L11.3215 65.05C23.4465 134.302 76.6934 187.152 143.39 200.45C159.957 238.517 191.462 268.583 230.525 283.214C232.192 303.881 247.353 320.728 267.19 324.947V413.562C246.668 417.995 231.193 435.955 230.545 457.647H174.404C164.356 457.647 156.209 465.794 156.209 475.842V587.437H415.789V488.628C415.789 471.519 401.918 457.648 384.809 457.648H341.453C340.806 435.956 325.331 417.997 304.809 413.564V324.881C324.457 320.564 339.451 303.845 341.161 283.339C380.37 268.753 411.998 238.623 428.609 200.452C495.307 187.153 548.553 134.305 560.678 65.0516L571.97 0.564062L441.334 0.5625ZM344.804 537.551C344.804 543.837 339.709 548.931 333.425 548.931H238.575C232.292 548.931 227.196 543.837 227.196 537.551V505.408C227.196 499.125 232.292 494.028 238.575 494.028H333.425C339.709 494.028 344.804 499.125 344.804 505.408V537.551ZM39.0262 60.2L33.509 28.6875H130.664V139.177C130.664 149.35 131.659 159.291 133.545 168.911C85.3715 153.419 48.1637 112.398 39.0262 60.2ZM352.961 105.558L328.954 128.959C326.928 130.934 326.003 133.78 326.481 136.57L332.148 169.612C333.353 176.636 325.982 181.991 319.675 178.675L290.001 163.073C287.495 161.758 284.503 161.758 282 163.073L252.325 178.675C246.018 181.991 238.646 176.634 239.853 169.612L245.52 136.57C245.998 133.781 245.073 130.936 243.046 128.959L219.04 105.558C213.937 100.584 216.753 91.9187 223.804 90.8937L256.981 86.0734C259.781 85.6672 262.203 83.9078 263.456 81.3703L278.293 51.3063C281.446 44.9172 290.559 44.9172 293.711 51.3063L308.548 81.3703C309.801 83.9078 312.223 85.6672 315.021 86.0734L348.2 90.8937C355.248 91.9187 358.064 100.584 352.961 105.558ZM532.973 60.2C523.834 112.398 486.628 153.42 438.453 168.912C440.339 159.291 441.334 149.35 441.334 139.177V28.6875H538.49L532.973 60.2Z" fill="currentColor"/>
</svg>
