<svg width="800" height="606" viewBox="0 0 800 606" fill="none" xmlns="http://www.w3.org/2000/svg">
<path d="M192.474 234.442C190.232 229.606 185.388 226.512 180.059 226.512C180.049 226.512 180.038 226.512 180.028 226.512C174.687 226.524 169.84 229.642 167.617 234.499L99.7939 382.642C96.6486 389.514 99.6676 397.636 106.539 400.781C108.385 401.625 110.322 402.025 112.228 402.025C117.415 402.025 122.377 399.059 124.678 394.034L141.689 356.878H219.057L236.306 394.093C239.484 400.95 247.617 403.933 254.476 400.754C261.333 397.575 264.314 389.44 261.137 382.583L192.474 234.442ZM154.219 329.51L180.137 272.903L206.373 329.51H154.219Z" fill="currentColor"/>
<path d="M350.518 224.821H284.358C276.8 224.821 270.674 230.948 270.674 238.506V388.337C270.674 395.895 276.8 402.021 284.358 402.021C291.916 402.021 298.042 395.895 298.042 388.337V331.421H350.518C379.908 331.421 403.815 307.512 403.815 278.124C403.817 248.733 379.908 224.821 350.518 224.821ZM350.518 304.053H298.042V252.19H350.518C364.817 252.19 376.446 263.823 376.446 278.122C376.449 292.421 364.817 304.053 350.518 304.053Z" fill="currentColor"/>
<path d="M428.027 224.821C420.469 224.821 414.343 230.948 414.343 238.506V388.337C414.343 395.895 420.469 402.021 428.027 402.021C435.585 402.021 441.711 395.895 441.711 388.337V238.506C441.711 230.948 435.583 224.821 428.027 224.821Z" fill="currentColor"/>
<path d="M775.404 0.867188H24.5979C11.0337 0.867188 0 11.9051 0 25.4693V580.535C0 594.097 11.0337 605.132 24.5979 605.132H775.406C788.968 605.132 800.002 594.097 800.002 580.535V25.4693C800 11.9051 788.968 0.867188 775.404 0.867188ZM591.472 448.827C602.339 423.16 627.373 406.575 655.251 406.575C664.537 406.575 673.611 408.423 682.225 412.069C717.375 426.958 733.865 467.665 718.985 502.817C708.107 528.482 683.074 545.065 655.208 545.065H655.206C645.92 545.065 636.846 543.217 628.238 539.568C611.208 532.36 598.004 518.951 591.061 501.81C584.116 484.671 584.261 465.855 591.472 448.827ZM675.512 70.9388C689.92 70.9388 701.59 82.6167 701.59 97.0167C701.59 111.421 689.92 123.095 675.512 123.095C661.114 123.095 649.438 111.421 649.438 97.0167C649.438 82.6167 661.114 70.9388 675.512 70.9388ZM597.295 70.9388C611.693 70.9388 623.371 82.6167 623.371 97.0167C623.371 111.421 611.693 123.095 597.295 123.095C582.897 123.095 571.217 111.421 571.217 97.0167C571.217 82.6167 582.897 70.9388 597.295 70.9388ZM519.076 70.9388C533.474 70.9388 545.141 82.6167 545.141 97.0167C545.141 111.421 533.474 123.095 519.076 123.095C504.667 123.095 492.998 111.421 492.998 97.0167C493 82.6167 504.67 70.9388 519.076 70.9388ZM44.7789 564.074V200.735H755.221V342.364C751.985 337.728 747.48 333.901 741.901 331.537L698.503 313.166C694.64 311.528 690.564 310.699 686.39 310.699C673.851 310.699 662.594 318.151 657.709 329.688L655.072 335.918C635.646 336.189 616.375 340.665 598.802 348.956L593.695 344.52C591.223 342.377 588.434 340.644 585.417 339.368C581.541 337.728 577.455 336.897 573.267 336.897C564.265 336.897 555.707 340.808 549.785 347.631L518.899 383.242C513.461 389.528 510.783 397.545 511.36 405.842C511.96 414.139 515.747 421.705 522.021 427.137L527.109 431.554C521.309 450.183 519.608 469.825 522.131 489.12L516.343 492.602C501.646 501.444 496.886 520.606 505.735 535.324L524.303 566.158H46.8632C45.7137 566.158 44.7789 565.223 44.7789 564.074Z" fill="currentColor"/>
</svg>
