<svg width="601" height="572" viewBox="0 0 601 572" fill="none" xmlns="http://www.w3.org/2000/svg">
<path d="M451.775 335.225L449.425 336.8C437.7 343.05 429.9 347.75 426.775 347.75C424.425 348.525 422.875 349.325 421.3 350.1C415.825 339.95 400.2 309.475 376.775 268.85C348.65 217.275 268.175 27.45 265.825 19.625C264.25 11.8 265.825 3.99997 271.3 0.874967C272.075 0.0999671 273.65 0.0999756 275.2 0.0999756C279.9 0.0999756 285.35 3.22497 288.475 5.57497C293.175 9.47497 384.575 149.325 433.8 238.4C463.5 292.3 473.65 311.85 477.55 318.875C475.975 319.65 474.425 320.45 472.85 322C469.725 325.9 458.775 332.15 454.1 334.5H453.325L451.775 335.225ZM276.775 100.85L286.925 106.325C304.125 115.7 308.025 136.025 299.425 153.2L231.45 114.125C237.7 103.175 249.425 96.925 260.35 96.925C266.6 96.925 272.075 97.7 276.75 100.825L276.775 100.85ZM288.5 171.95L289.275 172.725C291.625 173.5 291.625 177.425 290.85 178.975C290.075 180.525 288.5 181.325 286.95 181.325H283.825L283.05 180.55L280.7 184.45H281.475C283.825 186.025 284.6 188.35 283.825 190.7C282.25 192.275 281.475 193.05 279.925 193.05C279.15 193.05 278.35 193.05 277.575 192.275L276.8 191.5L272.1 200.1L272.875 200.875C274.45 201.65 275.225 204.775 274.45 206.35C273.675 207.925 272.1 208.7 270.55 208.7C269.775 208.7 268.975 208.7 268.2 207.925H267.425L265.075 211.825L265.85 212.6C268.2 214.175 268.975 216.5 267.425 218.85C266.65 220.425 265.85 221.2 264.3 221.2C263.525 221.2 262.725 220.425 261.95 220.425L261.175 219.65L258.825 222.775L255.7 228.25L187.725 189.175L190.85 183.7L193.2 180.575L192.425 179.8C190.075 179.025 189.3 175.1 190.85 173.55C191.625 171.975 192.425 171.2 193.975 171.2C194.75 171.2 195.55 171.2 196.325 171.975H197.1L199.45 168.85L198.675 168.075C196.325 166.5 195.55 164.175 197.1 161.825C197.875 160.25 199.45 159.475 201 159.475C201.775 159.475 202.575 160.25 203.35 160.25L204.125 161.025L208.825 152.425H208.05C205.7 150.85 204.925 148.525 206.475 146.175C207.25 144.6 208.05 143.825 209.6 143.825C210.375 143.825 211.175 144.6 211.95 144.6L212.725 145.375L215.075 140.675L214.3 139.9C211.95 139.125 211.175 136 212.725 134.425C213.5 132.85 215.075 132.075 216.625 132.075H219.75L220.525 132.85L223.65 127.375L291.625 166.45L288.5 171.95ZM44.75 436L179.125 203.175L247.1 243.025L109.6 480.525C97.875 475.825 86.15 469.575 75.225 463.325C64.275 456.3 52.575 448.475 42.4 440.675L43.175 438.325L44.75 436ZM0.999976 401.625V285.225H104.9L36.925 401.625H0.974976H0.999976ZM408.025 376.625L418.975 393.025L422.875 396.925L425.225 401.625H182.25L250.225 285.225H358.825C385.4 332.875 401.8 364.125 401.8 364.925C403.375 367.275 404.15 368.825 405.7 369.625C406.475 371.975 407.275 375.1 408.05 376.65L408.025 376.625ZM514.275 339.125L507.25 322.725C505.675 320.375 504.9 318.825 503.35 317.25C502.575 314.9 501.775 312.55 501 311L494.75 298.5C492.4 294.6 490.05 290.675 486.925 285.225H601V401.625H542.4C542.4 400.85 541.625 399.275 541.625 397.725L533.025 379.75C532.25 378.175 531.45 375.85 529.9 374.275C529.9 371.925 529.125 370.375 528.325 368.8L520.5 350.825C519.725 349.25 517.375 347.7 516.6 346.125C515.825 343.775 515.025 340.65 514.25 339.1L514.275 339.125ZM511.15 389.9L518.975 405.525L519.75 407.875C519.75 407.875 508.025 418.025 497.875 423.5C487.725 428.975 473.65 433.65 473.65 433.65L471.3 430.525L462.7 416.45V410.2L456.45 405.5L444.725 389.1V383.625L439.25 379.725L433 369.575L429.1 363.325C434.575 362.55 443.95 358.625 458 350.825C458.775 350.825 458.775 350.05 459.575 350.05C460.375 350.05 460.35 349.275 461.15 349.275C472.875 343.025 481.475 337.55 485.375 332.075L488.5 339.1L493.2 349.25V357.85L498.675 360.975L506.5 378.95L505.725 386.775L511.15 389.9ZM524.45 425.075L590.075 523.525C598.675 539.15 590.85 557.9 575.225 566.5C569.75 569.625 563.5 571.2 558.025 571.2C547.075 571.2 536.925 566.5 530.675 556.35L483.025 447.75C488.5 445.4 497.875 441.5 505.675 437.6C511.925 433.7 519.75 429 524.425 425.1L524.45 425.075ZM26 558.65L22.1 565.675C21.325 567.25 18.975 568.025 16.625 568.025H15.85C15.075 568.025 14.275 568.025 14.275 567.25C13.5 567.25 13.5 566.475 12.7 566.475C11.125 564.9 11.125 561.775 11.925 560.225L15.825 553.2L38.475 457.875C47.85 464.9 58 471.95 67.375 477.4C76.75 482.85 86.9 487.55 97.075 491.475L26 558.65Z" fill="currentColor"/>
</svg>
