<svg width="800" height="702" viewBox="0 0 800 702" fill="none" xmlns="http://www.w3.org/2000/svg">
<path d="M795.437 651.339L429.181 16.966C416.214 -5.49648 383.789 -5.49648 370.819 16.966L4.56563 651.339C-8.40468 673.802 7.80625 701.882 33.7438 701.882H766.253C792.192 701.882 808.403 673.804 795.437 651.339ZM432.867 612.932C432.867 617.119 418.152 620.514 400.003 620.514C381.848 620.514 367.133 617.119 367.133 612.932V560.344C367.133 556.157 381.848 552.761 400.003 552.761C418.152 552.761 432.867 556.158 432.867 560.344V612.932ZM427.389 490.235C427.402 490.391 427.492 490.539 427.492 490.704C427.492 497.491 415.181 502.994 400.002 502.994C384.812 502.994 372.508 497.491 372.508 490.704C372.508 490.544 372.595 490.394 372.611 490.235L355.523 270.704C355.523 263.916 375.436 258.413 400 258.413C424.564 258.413 444.473 263.916 444.473 270.704L427.389 490.235Z" fill="currentColor"/>
</svg>
