<svg width="800" height="800" viewBox="0 0 800 800" fill="none" xmlns="http://www.w3.org/2000/svg">
<path d="M776.363 662.248L642.992 528.877C635.555 540.317 627.522 551.342 618.942 561.911L569.748 512.716C571.869 509.948 573.967 507.159 576.02 504.323C577.403 502.409 578.764 500.495 580.077 498.559C580.308 498.259 580.514 497.938 580.723 497.638C582.059 495.678 583.397 493.695 584.689 491.713C587.502 487.425 590.198 483.091 592.781 478.664C620.423 431.517 636.308 376.647 636.308 318.156C636.308 259.666 620.423 204.797 592.781 157.65C565.138 110.548 525.761 71.1719 478.661 43.5281C431.513 15.8844 376.644 0 318.153 0C259.664 0 204.794 15.8844 157.647 43.5281C155.711 44.6578 153.797 45.8109 151.883 47.0094C149.439 48.5078 146.995 50.0531 144.597 51.6203C140.333 54.4094 136.114 57.2922 131.988 60.2891C130.603 61.2797 129.244 62.2953 127.883 63.3094C126.455 64.3938 125.025 65.4766 123.595 66.5609C122.281 67.5984 120.944 68.6359 119.63 69.6953C117.047 71.7703 114.489 73.8687 111.975 76.0359C99.0656 87.0312 87.0313 99.0656 76.0344 111.977C73.8672 114.489 71.7688 117.027 69.6938 119.631C68.6344 120.945 67.5953 122.283 66.5594 123.597C65.475 125.027 64.3922 126.456 63.3094 127.884C62.2953 129.244 61.2813 130.605 60.2891 131.988C57.2922 136.114 54.4109 140.333 51.6203 144.598C50.0516 146.997 48.5078 149.441 47.0094 151.884C45.8109 153.797 44.6578 155.711 43.5281 157.648C15.8844 204.795 0 259.666 0 318.156C0 376.647 15.8844 431.516 43.5266 478.664C71.1703 525.764 110.547 565.142 157.647 592.784C204.794 620.428 259.664 636.312 318.153 636.312C376.644 636.312 431.513 620.428 478.659 592.784C481.609 591.056 484.516 589.28 487.397 587.459C488.848 586.561 490.278 585.638 491.708 584.694C493.691 583.403 495.673 582.066 497.633 580.728C497.933 580.52 498.255 580.312 498.555 580.083C500.491 578.769 502.405 577.408 504.319 576.025C507.155 573.973 509.944 571.875 512.711 569.755L561.903 618.947C551.334 627.525 540.309 635.559 528.872 642.998L662.244 776.37C677.989 792.116 698.647 800 719.303 800C739.959 800 760.617 792.116 776.363 776.369C807.878 744.853 807.878 693.764 776.363 662.248ZM444.816 505.13C444.17 505.591 443.525 506.028 442.856 506.444C442.119 506.975 441.358 507.458 440.597 507.942C439.906 508.403 439.213 508.841 438.522 509.28C437.622 509.856 436.725 510.409 435.825 510.939C434.972 511.47 434.142 511.977 433.289 512.484C431.467 513.569 429.645 514.605 427.802 515.642C427.663 515.734 427.525 515.805 427.364 515.895C425.864 516.725 424.344 517.533 422.822 518.316C422.222 518.662 421.622 518.984 421 519.284C419.802 519.906 418.58 520.506 417.359 521.106C415.03 522.259 412.678 523.366 410.303 524.425C382.153 537.059 350.961 544.091 318.155 544.091C285.348 544.091 254.156 537.059 226.006 524.425C175.377 501.739 134.572 460.933 111.886 410.305C99.25 382.156 92.2188 350.962 92.2188 318.156C92.2188 285.35 99.25 254.156 111.884 226.006C115.434 218.098 119.422 210.422 123.827 203.02C124.334 202.167 124.841 201.337 125.37 200.484C126.8 198.109 128.298 195.758 129.867 193.453C130.72 192.139 131.595 190.848 132.517 189.556C133.602 187.942 134.73 186.352 135.908 184.784C137.681 182.364 139.503 179.966 141.37 177.614C152.045 164.22 164.217 152.047 177.613 141.372C179.964 139.505 182.363 137.683 184.783 135.908C186.352 134.731 187.942 133.602 189.555 132.519C190.847 131.597 192.138 130.72 193.452 129.867C195.758 128.3 198.109 126.802 200.483 125.372C201.336 124.841 202.166 124.334 203.019 123.827C210.419 119.423 218.097 115.434 226.005 111.884C254.155 99.25 285.347 92.2188 318.153 92.2188C350.959 92.2188 382.153 99.25 410.302 111.884C460.93 134.57 501.736 175.377 524.422 226.005C537.056 254.155 544.088 285.348 544.088 318.155C544.088 350.961 537.056 382.155 524.422 410.305C523.361 412.68 522.256 415.031 521.103 417.359C520.503 418.581 519.903 419.803 519.281 421.003C518.981 421.625 518.658 422.225 518.313 422.825C517.528 424.347 516.722 425.869 515.892 427.367C515.8 427.528 515.731 427.667 515.639 427.805C514.623 429.648 513.564 431.47 512.48 433.292C511.972 434.145 511.466 434.975 510.936 435.828C510.406 436.728 509.852 437.627 509.275 438.525C508.838 439.217 508.4 439.909 507.938 440.6C507.453 441.361 506.969 442.122 506.439 442.859C506.025 443.528 505.586 444.173 505.125 444.819C504.688 445.464 504.248 446.109 503.788 446.755C503.556 447.147 503.28 447.539 502.981 447.908C502.475 448.669 501.92 449.453 501.367 450.214C497.172 456.047 492.698 461.65 487.95 467.02C487.098 468.013 486.222 468.98 485.345 469.948C484.216 471.194 483.086 472.439 481.933 473.637C480.595 475.044 479.213 476.45 477.828 477.834C476.447 479.217 475.039 480.6 473.633 481.938C472.434 483.091 471.189 484.219 469.944 485.35C468.975 486.227 468.008 487.102 467.016 487.955C461.645 492.705 456.042 497.177 450.209 501.373C449.448 501.927 448.664 502.48 447.903 502.987C447.534 503.287 447.142 503.564 446.75 503.794C446.106 504.253 445.459 504.692 444.816 505.13Z" fill="currentColor"/>
</svg>
