<svg width="796" height="795" viewBox="0 0 796 795" fill="none" xmlns="http://www.w3.org/2000/svg">
<path d="M225.228 256.433C275.776 377.905 328.252 504.043 381.507 632.048C416.949 640.382 424.751 648.466 429.704 688.203C432.053 706.979 433.353 725.869 433.599 744.782C434.014 779.105 419.622 795.015 385.468 794.615C326.775 793.923 268.108 790.83 209.417 789.463C185.985 788.92 162.474 789.666 139.066 790.991C121.582 791.982 111.637 787.433 110.23 770.376C107.043 737.947 105.926 705.344 106.883 672.77C108.118 645.63 125.508 632.388 154.191 630.52C163.289 629.923 172.455 630.221 181.588 630.173C190.648 630.132 199.707 630.173 211.991 630.173C205.444 606.627 200.099 584.884 193.344 563.588C169.12 487.237 144.418 411.035 119.889 334.779C119.105 332.298 117.996 329.9 117.365 327.384C112.938 309.701 112.855 288.921 102.965 275.198C93.9019 262.624 73.6237 258.643 59.4195 249.176C-14.7642 199.73 -19.4662 81.0755 50.1761 25.2104C94.3837 -10.2554 173.054 -6.37632 221.019 34.199C230.669 41.9716 239.139 51.1043 246.165 61.3107C248.63 65.8427 252.426 69.5089 257.041 71.8152C261.655 74.1221 266.867 74.9579 271.971 74.2104C348.702 68.8343 425.511 64.4534 502.175 58.2664C548.499 54.5282 548.413 53.329 564.968 96.4355C587.867 93.7949 610.953 91.5459 633.866 88.125C638.236 87.4707 642.666 82.7877 645.782 78.9244C658.463 63.1955 670.762 47.1455 683.006 31.0565C698.953 10.081 713.138 6.06861 737.448 16.668C750.129 21.8454 762.487 27.777 774.457 34.4305C788.511 42.6788 793.179 55.8606 788.033 67.3453C782.941 78.7089 769.836 84.0731 754.493 79.7937C746.278 77.6803 738.451 74.2803 731.299 69.7197C720.105 62.165 712.493 64.8725 704.905 74.7507C699.532 81.3191 693.759 87.5471 687.621 93.3991C667.43 113.849 666.326 132.85 683.46 156.094C695.842 172.888 707.86 189.942 719.514 207.257C725.585 216.27 732.385 218.248 742.762 214.867C753.782 210.865 765.335 208.545 777.048 207.982C783.317 207.923 793.866 213.699 794.881 218.46C796.248 224.882 792.391 236.222 787.078 239.557C769.83 250.067 751.8 259.23 733.138 266.962C717.466 273.686 704.744 265.787 695.794 253.385C679.77 231.202 663.83 208.828 649.95 185.31C643.639 174.632 636.756 170.729 625.263 170.682C612.218 170.941 599.173 170.155 586.253 168.331C572.433 166.031 566.042 172.25 561.093 183.766C550.725 207.911 549.878 207.12 523.061 207.315C486.556 207.586 450.048 210.866 413.568 210.45C370.578 209.957 327.582 207.425 284.651 204.573C273.072 203.79 265.557 204.965 258.621 215.595C249.805 229.13 238.194 240.858 225.228 256.433ZM235.095 148.566C233.806 85.9227 187.917 41.6285 126.37 43.6268C76.7902 45.2373 41.6142 84.3788 42.3078 137.133C43.0327 192.046 82.0684 231.261 136.816 229.416C197.819 227.366 240.193 182.234 235.095 148.566ZM144.771 274.004C144.765 276.877 145.063 279.743 145.661 282.554C155.817 311.397 166.464 340.068 176.334 369.006C204.656 452.046 232.54 535.234 261.133 618.173C263.092 623.803 269.06 631.457 273.891 632.03C289.064 633.827 304.588 632.687 321.79 632.687L185.574 266.425L144.771 274.004ZM280.556 173.617L525.216 166.744C523.464 158.214 522.124 152.027 520.933 145.812C519.585 138.782 518.28 131.741 517.113 124.68C513.664 103.814 513.695 103.798 492.426 103.873C427.929 104.105 363.433 104.339 298.938 104.575C290.776 104.606 282.61 104.575 274.302 104.575C276.332 127.047 278.202 147.646 280.556 173.617ZM152.494 741.433H376.871V679.558H156.193C154.88 701.415 153.694 721.314 152.494 741.433Z" fill="currentColor"/>
<path d="M131.354 180.582C109.674 180.28 90.9746 168.826 86.1316 152.831C80.3949 133.909 88.3101 112.832 106.115 99.6546C138.176 75.9047 171.295 84.3525 181.828 118.968C191.651 151.315 167.278 181.083 131.354 180.582Z" fill="currentColor"/>
</svg>
