<svg width="692" height="800" viewBox="0 0 692 800" fill="none" xmlns="http://www.w3.org/2000/svg">
<path d="M259.751 448.6C263.701 418.9 261.726 387.25 260.751 358.55C260.751 328.85 258.776 301.125 246.901 273.45C235.001 245.725 194.426 255.625 194.426 255.625C194.426 255.625 229.076 480.25 232.026 528.775C252.826 520.9 257.776 467.425 259.751 448.6Z" fill="currentColor"/>
<path d="M653.1 505.375C638.9 467.05 606.55 437.45 566.575 426.225C533.5 416.95 497.275 420.65 460.725 436.475C479.85 410.3 490.75 390.25 491.45 375L491.5 373.95C492.125 337.05 437.475 288.575 384.625 241.65C352.575 213.2 316.25 180.975 312.1 166.125C310.65 161 309.1 154.95 307.4 148.175C293.75 94.8501 270.9 5.67508 216.15 0.0250771C163.475 -0.924923 135.9 48.8001 134.15 147.75C132.225 255.375 161.125 427.7 217.675 647.125C215.55 646 213.55 644.975 211.825 644.05C214.65 634.075 213.025 624.775 206.675 620.5C199.775 615.8 189.3 618.525 180.525 626.275C167.15 610.925 158.925 586.725 150.95 563.2C140.35 531.65 129.225 499.3 105.15 486.825C103.15 485.125 100.675 483.95 97.8254 483.925C91.2754 483.8 85.8754 489 85.7754 495.575C85.6754 502.175 90.8504 507.55 97.4254 507.65C102.625 507.725 107 504.4 108.675 499.775C124.55 513.1 133.375 538.825 142.55 566.025C150.375 589.25 158.425 613.125 171.7 629.75C134.575 623.45 108.75 621.95 87.6254 620.775C61.1254 619.225 43.4754 618.15 21.6004 608.525C23.1004 606.6 24.1754 604.275 24.2004 601.675C24.3254 595.1 19.1004 589.7 12.5254 589.6C6.02544 589.45 0.600434 594.675 0.475434 601.225C0.375434 606.95 4.45043 611.575 9.85043 612.8C37.2504 626.675 57.4504 627.925 87.1504 629.7C108.15 630.875 133.875 632.375 170.8 638.675C163.675 651.7 164.025 665.675 172.275 671.275C178.225 675.35 186.85 673.85 194.75 668.35C204.2 678.525 217.675 693.525 228.1 706.45C247.3 730.325 362.45 802.8 377 796.975C382.6 794.725 370.95 778.175 352.85 757.625C357.975 760.225 362.675 762.5 366.675 764.4C372.55 766.8 510.325 821.525 589.075 790.625C654.8 789.275 690.225 750.975 691.525 679.675C692.275 634.225 679.75 577.2 653.1 505.375ZM157.9 148.175C159.4 64.9501 178.825 23.1001 214.65 23.7001C251.95 27.5751 273.825 113.025 284.35 154.1C286.125 161 287.7 167.25 289.15 172.5C294.875 193.05 323.15 218.9 368.825 259.425C410.75 296.625 468.175 347.575 467.75 373.525L479.625 373.725L467.725 373.925C466.95 391.35 436.05 431.325 402.2 472.3C386.4 486.45 355.15 524.375 325.575 564.775C298.375 599.15 275.675 631.6 265.425 658.125C263.125 662.725 261.175 666.925 259.7 670.725C255.125 668.05 250.675 665.45 246.375 662.95C186.525 435.15 155.95 257.175 157.9 148.175ZM586.575 766.85H584.25L582.075 767.775C512.675 796.825 376.875 742.875 376.225 742.675C338.325 724.425 295.8 699.8 283.125 687.45C283.275 685.7 283.4 683.9 283.3 681.95C283.8 677.1 285.4 671.525 287.775 665.525C298.5 645.35 319.025 614.1 341.5 582.925C358.5 561.325 377.275 538.95 395.25 517.575C403.65 507.575 411.525 498.2 418.975 489.175C467.225 451.3 517.325 437.075 560.125 449.075C592.825 458.25 619.225 482.375 630.8 513.575C640.2 539 668.825 616.175 667.725 679.2C666.675 738.625 640.875 766.45 586.575 766.85Z" fill="currentColor"/>
<path d="M205.325 210.075C227.1 221.975 261.725 215.025 264.7 187.325C267.675 162.6 249.85 135.875 238.975 117.05C232.05 105.175 249.35 44.8 212 49C174.65 53.25 181.575 132.9 183.55 155.7C184.55 175.5 186.525 200.225 205.325 210.075Z" fill="currentColor"/>
<path d="M325.076 401.125C304.276 454.575 278.551 507.975 261.726 563.425C258.776 573.325 298.376 561.475 315.176 539.65C331.026 520.9 440.651 405.725 430.026 366.5C419.351 327.275 383.526 317.025 354.776 339.775C336.951 353.65 333.001 380.35 325.076 401.125Z" fill="currentColor"/>
<path d="M329.625 267.251C316.325 259.026 303.65 286.251 324.55 285.601C339.75 285.601 334.375 271.676 334.375 271.676L329.625 267.251Z" fill="currentColor"/>
<path d="M282.825 264.851C308.55 252.976 309.05 227.976 278.85 221.301C248.675 214.626 248.175 279.701 282.825 264.851Z" fill="currentColor"/>
<path d="M335.376 322.999C356.301 322.999 348.901 303.824 348.901 303.824L342.351 297.724C324.026 286.424 306.626 323.924 335.376 322.999Z" fill="currentColor"/>
<path d="M370.626 323.025C385.826 323.025 380.451 309.1 380.451 309.1L375.726 304.625C362.401 296.425 349.751 323.65 370.626 323.025Z" fill="currentColor"/>
<path d="M318.251 241.75C327.526 241.75 324.251 233.25 324.251 233.25L321.351 230.55C313.251 225.525 305.501 242.175 318.251 241.75Z" fill="currentColor"/>
<path d="M344.451 266.101C353.726 266.101 350.426 257.576 350.426 257.576L347.551 254.876C339.451 249.851 331.701 266.451 344.451 266.101Z" fill="currentColor"/>
<path d="M331.15 253.926C340.425 253.926 337.125 245.426 337.125 245.426L334.25 242.701C326.1 237.676 318.4 254.301 331.15 253.926Z" fill="currentColor"/>
<path d="M346.251 291.4C355.526 291.4 352.251 282.875 352.251 282.875L349.351 280.175C341.226 275.15 333.501 291.75 346.251 291.4Z" fill="currentColor"/>
<path d="M361.751 279.2C371.026 279.2 367.751 270.7 367.751 270.7L364.851 268C356.726 263.025 349.001 279.65 361.751 279.2Z" fill="currentColor"/>
<path d="M311.6 259.951C320.875 259.951 317.575 251.476 317.575 251.476L314.675 248.776C306.575 243.776 298.875 260.376 311.6 259.951Z" fill="currentColor"/>
<path d="M294.65 292.051C284.75 289.051 282.55 342.751 281.55 356.626C279.575 372.451 278.575 391.251 279.575 407.101C299.375 394.226 304.3 356.626 312.25 335.826C316.175 323.926 312.45 294.976 294.65 292.051Z" fill="currentColor"/>
<path d="M596.25 547.575C600.225 533.7 585.6 496.725 551.725 484.225C517.85 471.775 501.25 478.325 477.475 489.2C430.025 508.975 385.425 556.475 355.75 597.05C341.9 615.85 332.025 637.625 318.15 657.4C361.7 637.625 410.225 643.525 455.725 630.7C499.25 618.85 581.425 598.1 596.25 547.575Z" fill="currentColor"/>
<path d="M620.001 551.551C601.851 538.076 585.376 644.626 560.626 665.376C535.901 686.176 504.076 690.251 483.301 704.101C468.451 715.026 456.726 729.701 475.476 744.576C497.251 761.426 518.051 758.401 544.751 757.426C568.501 756.451 601.601 746.976 621.951 739.651C660.676 722.201 645.926 570.801 620.001 551.551Z" fill="currentColor"/>
<path d="M550.901 633.201C543.576 621.101 444.876 651.501 401.351 661.426C386.476 664.401 314.251 666.026 324.151 687.751C332.051 705.601 390.451 728.726 408.276 725.751C430.026 721.776 558.176 645.326 550.901 633.201Z" fill="currentColor"/>
</svg>
