<svg width="800" height="792" viewBox="0 0 800 792" fill="none" xmlns="http://www.w3.org/2000/svg">
<path d="M341.095 178.08C385.685 178.08 421.826 214.224 421.826 258.824C421.826 303.414 385.683 339.568 341.095 339.568C296.495 339.568 260.354 303.412 260.354 258.824C260.354 214.221 296.497 178.08 341.095 178.08Z" fill="currentColor"/>
<path d="M714.354 0C761.666 0 800 39.5007 800 88.2295C800 136.958 761.666 176.461 714.354 176.461C667.044 176.461 628.736 136.96 628.736 88.2295C628.736 39.4985 667.044 0 714.354 0Z" fill="currentColor"/>
<path d="M770.671 214.322C739.727 189.149 685.948 203.166 659.233 210.679C628.213 222.606 569.732 234.67 501.948 234.346C486.749 211.525 412.575 106.341 412.575 106.341L406.356 102.498L470.583 230.852L487.648 236.536V245.167L485.956 241.014L471.978 236.325C473.669 243.078 474.862 247.481 475.212 248.376C484.665 287.678 464.267 324.567 463.696 325.588C456.159 336.021 454.418 351.059 460.513 364.839C469.168 384.465 490.56 394.178 508.147 386.431C525.708 378.645 532.949 356.333 524.264 336.656C524.239 336.607 524.19 336.556 524.164 336.481C524.264 336.556 524.388 336.631 524.388 336.631L503.218 283.908C505.855 283.447 508.79 282.964 511.926 282.427L536.353 332.587C536.551 333.248 536.8 333.88 537.099 334.515C545.805 354.19 567.148 363.893 584.733 356.12C602.269 348.37 609.535 326.033 600.803 306.345C594.61 292.318 581.972 283.424 568.89 282.28C567.746 281.969 560.979 280.216 551.851 276.211C600.381 269.184 658.587 262.953 658.166 273.574C657.443 291.781 649.459 474.961 656.549 481.053L641.92 616.769L654.855 750.249H617.095V789.475H745.498V780.969V750.224V498.095C760.623 495.11 772.113 487.101 774.154 470.632C780.274 418.693 805.149 242.394 770.671 214.322ZM481.9 226.473C478.89 227.791 475.382 226.424 474.063 223.439C472.721 220.404 474.063 216.921 477.099 215.566C480.134 214.222 483.617 215.615 484.959 218.65C486.278 221.635 484.91 225.118 481.9 226.473ZM513.888 341.221C520.057 355.2 515.407 370.846 503.516 376.095C491.674 381.344 476.95 374.255 470.781 360.25C464.563 346.259 469.215 330.623 481.127 325.374C493.018 320.077 507.695 327.217 513.888 341.221ZM557.694 295.04C569.536 289.791 584.211 296.906 590.429 310.885C596.598 324.863 591.971 340.51 580.08 345.759C568.191 351.007 553.514 343.918 547.296 329.914C541.15 315.923 545.803 300.289 557.694 295.04Z" fill="currentColor"/>
<path d="M484.911 201.66L437.997 84.5615L436.953 92.2111C436.953 92.2111 443.919 121.376 451.926 154.46C463.119 170.431 475.01 187.419 484.911 201.66Z" fill="currentColor"/>
<path d="M95.4704 654.855C103.716 656.298 112.199 657.589 120.743 658.833C121.627 658.982 122.496 659.082 123.393 659.207C162.945 665.053 204.461 669.23 242.321 670.549C244.584 670.623 246.774 670.649 249.012 670.723C253.801 670.873 258.515 670.947 263.178 670.973C264.497 670.973 265.901 671.047 267.232 671.047C268.911 671.047 270.466 670.998 272.095 670.973C274.745 670.947 277.344 670.924 279.907 670.873C283.13 670.772 286.251 670.672 289.384 670.549C291.885 670.423 294.384 670.325 296.821 670.176C299.805 669.978 302.679 669.754 305.589 669.554C307.928 669.33 310.303 669.132 312.565 668.906C315.339 668.634 317.963 668.284 320.588 667.937C322.752 667.639 324.916 667.39 326.955 667.04C329.505 666.619 331.867 666.146 334.294 665.647C336.185 665.302 338.111 664.953 339.903 664.529C342.265 663.958 344.429 663.287 346.619 662.665C348.149 662.215 349.778 661.821 351.208 661.295C353.47 660.526 355.462 659.629 357.475 658.732C358.544 658.238 359.737 657.889 360.734 657.341C363.582 655.899 366.155 654.357 368.322 652.64C369.44 651.769 370.535 650.674 371.579 649.404C372.013 648.884 372.401 648.26 372.81 647.666C373.419 646.844 374.029 646.073 374.614 645.078C375.075 644.309 375.509 643.386 375.933 642.515C376.419 641.571 376.928 640.726 377.388 639.705C377.848 638.736 378.259 637.641 378.67 636.595C379.069 635.5 379.529 634.508 379.94 633.387C380.349 632.218 380.698 631.025 381.084 629.781C381.493 628.562 381.881 627.418 382.253 626.097C382.613 624.902 382.95 623.511 383.274 622.218C383.634 620.851 384.022 619.532 384.343 618.09C384.654 616.746 384.927 615.355 385.24 614.013C385.6 612.419 385.924 610.875 386.26 609.237C386.533 607.893 386.77 606.499 386.995 605.106C387.33 603.317 387.628 601.549 387.965 599.685C388.201 598.341 388.374 596.997 388.574 595.631C388.885 593.616 389.183 591.626 389.469 589.537C389.643 588.246 389.805 586.901 389.954 585.657C390.252 583.369 390.514 581.131 390.787 578.843C390.923 577.648 391.049 576.429 391.173 575.211C391.458 572.674 391.707 570.186 391.944 567.599C392.018 566.554 392.119 565.433 392.219 564.389C392.453 561.629 392.704 558.842 392.902 556.056C392.99 555.061 393.064 554.043 393.113 553.022C393.314 550.061 393.55 547.103 393.697 544.067C393.746 543.27 393.797 542.476 393.823 541.681C393.997 538.445 394.183 535.16 394.332 531.878C394.357 531.23 394.381 530.559 394.406 529.939C394.568 526.456 394.692 523.025 394.815 519.493C394.815 519.018 394.841 518.547 394.864 518.025C394.964 514.367 395.065 510.735 395.175 507.129C395.175 506.956 395.175 506.856 395.175 506.756C396.108 463.649 394.615 420.342 392.165 391.226C392.165 391.202 392.165 391.202 392.165 391.202C392.14 390.904 392.116 390.668 392.091 390.367C391.829 387.581 391.582 384.908 391.343 382.396C391.243 381.288 391.119 380.332 391.021 379.311C390.847 377.682 390.659 376.052 390.487 374.523C390.361 373.577 390.225 372.631 390.099 371.736C389.901 370.243 389.69 368.963 389.49 367.67C389.392 366.96 389.292 366.215 389.155 365.58C388.857 363.801 388.521 362.11 388.222 360.791C385.238 358.676 381.879 357.049 378.285 355.617C378.11 355.542 377.948 355.468 377.776 355.393C374.18 353.987 370.337 352.944 366.309 352.16C366.209 352.111 366.16 352.085 366.06 352.049C366.034 352.049 366.011 352.049 365.985 352.049C338.186 346.453 302.404 352.584 286.969 352.558C279.905 356.339 273.088 388.887 262.23 424.794C260.837 429.446 259.406 434.047 257.878 438.7C257.853 438.798 257.804 438.949 257.778 439.047C254.57 448.799 251.051 458.5 247.157 467.703C247.157 467.703 247.157 467.703 247.157 467.752C245.218 472.279 243.178 476.731 241.013 481.012C240.964 481.136 240.888 481.285 240.813 481.432C238.674 485.712 236.399 489.791 234.011 493.623C233.986 493.672 233.962 493.723 233.937 493.798C226.649 505.561 218.29 515.162 208.54 521.007C208.54 521.007 208.54 521.007 208.566 521.007C200.929 525.585 192.447 527.899 182.969 527.102C94.6247 515.009 -9.96274 636.97 95.4704 654.855Z" fill="currentColor"/>
<path d="M409.19 687.192L409.439 687.241L460.705 455.656L408.992 444.213L405.123 461.523C406.355 541.498 400.522 640.325 374.465 660.624C357.04 674.23 320.948 681.17 267.204 681.17C239.132 681.17 206.348 679.131 171.983 675.499V688.683H259.256L248.175 750.918H169.459L142.546 791.266H445.359L418.42 750.918H334.702L323.621 688.683H409.19V687.192Z" fill="currentColor"/>
<path d="M183.85 517.023C184.871 517.124 185.866 517.149 186.861 517.149C212.766 517.149 230.875 483.89 243.897 448.07C224.382 470.631 202.418 487.895 181.386 486.551C156.089 486.923 151.735 507.695 183.85 517.023Z" fill="currentColor"/>
<path d="M93.7893 664.804C78.603 662.241 67.7836 657.689 59.9849 652.268C45.3588 675.351 32.226 696.845 24.0417 710.425H0V746.843H117.497V710.425H115.569L142.209 672.019C126.141 669.931 109.885 667.543 93.7893 664.804Z" fill="currentColor"/>
</svg>
