<svg width="610" height="419" viewBox="0 0 610 419" fill="none" xmlns="http://www.w3.org/2000/svg">
<path d="M304.7 0.0999756L609.4 121.975L304.7 243.075L77.35 152.45C63.275 164.175 53.125 182.925 51.575 204.025H57.05C63.3 204.025 68 208.725 68 214.975V243.875C68 250.125 63.3 254.825 57.05 254.825H53.15L68 406.4C68.775 412.65 64.1 418.125 57.85 418.125H30.5C24.25 418.125 19.55 412.65 19.55 406.4L35.175 254.825H31.275C25.025 254.825 19.55 250.125 19.55 243.875V214.975C19.55 208.725 25.025 204.025 31.275 204.025H39.875C41.45 181.375 51.6 161.825 65.65 147.775L0.0250244 122L304.7 0.0999756ZM296.1 264.95L304.7 268.075L313.3 264.95L480.5 197.75L493 336.025C493.775 345.4 487.525 349.3 478.925 345.4L413.3 311.8C404.7 307.1 390.65 307.9 382.825 312.575L319.55 348.525C311.725 353.225 297.675 353.225 289.85 348.525L226.575 312.575C218.75 307.875 204.7 307.1 196.875 311.8L130.475 345.4C121.875 350.1 115.625 345.4 116.4 336.025L128.9 197.75L296.1 264.95Z" fill="currentColor"/>
</svg>
