<svg width="2644" height="800" viewBox="0 0 2644 800" fill="none" xmlns="http://www.w3.org/2000/svg">
<path d="M2644 422.764C2644 359.361 2627.3 299.911 2598.18 248.408C2626.44 196.621 2655.17 115.525 2607.51 51.3035C2556.75 -17.1278 2419.36 4.04724 2290.1 67.8925C2289.77 67.8925 2289.44 67.8675 2289.11 67.8675C2134.05 67.8675 2002.28 167.38 1953.98 305.977C1998.87 269.233 2050.9 230.689 2097.84 205.939C1970.47 333.575 1904.32 441.841 1854.61 598.546C1812.71 730.716 1893.02 865.991 2129.01 739.469C2177.11 763.843 2231.49 777.65 2289.11 777.65C2445.62 777.65 2578.36 676.308 2625.54 535.682H2432.04C2406.31 587.697 2352.7 623.419 2290.77 623.419C2203.77 623.419 2133.23 552.903 2133.23 465.894H2641.28C2643 451.75 2644 437.363 2644 422.764ZM1937.93 714.286C1912.89 677.449 1943.75 609.583 1969.75 573.472C1995.13 635.76 2031.94 677.207 2082.56 710.521C2033.78 745.638 1965.51 754.861 1937.93 714.286ZM2133.82 364.725C2140.56 283.913 2208.23 220.457 2290.77 220.457C2373.29 220.457 2440.95 283.913 2447.7 364.725H2133.82ZM2563.49 197.897C2535.29 163.535 2500.82 134.575 2461.76 112.755C2494.55 93.53 2548.41 73.1347 2578.11 89.3488C2581.78 91.7691 2585.33 94.4707 2588.61 97.8738C2610.13 123.428 2582.1 171.519 2563.49 197.897Z" fill="currentColor"/>
<path d="M1721.35 377.689C1721.22 375.295 1720.98 372.927 1720.81 370.519C1720.44 365.556 1720.04 360.595 1719.51 355.681C1719.2 352.903 1718.81 350.148 1718.45 347.369C1717.86 342.866 1717.21 338.375 1716.47 333.922C1716 331.094 1715.49 328.266 1714.97 325.461C1714.13 321.07 1713.23 316.703 1712.26 312.361C1711.64 309.631 1711.03 306.903 1710.38 304.198C1709.26 299.683 1708.04 295.217 1706.78 290.777C1706.1 288.345 1705.45 285.913 1704.72 283.506C1703.11 278.222 1701.36 273.011 1699.55 267.838C1699.03 266.336 1698.57 264.811 1698.02 263.322C1695.59 256.623 1692.98 250.013 1690.21 243.498C1689.64 242.158 1689 240.867 1688.42 239.542C1686.17 234.406 1683.85 229.32 1681.4 224.308C1680.36 222.175 1679.24 220.103 1678.16 217.994C1676.03 213.838 1673.86 209.694 1671.59 205.614C1670.32 203.342 1669.02 201.111 1667.7 198.864C1665.46 195.006 1663.15 191.186 1660.78 187.402C1659.38 185.181 1657.97 182.972 1656.53 180.789C1654.04 176.992 1651.48 173.272 1648.86 169.573C1647.43 167.539 1646.02 165.505 1644.55 163.508C1641.63 159.527 1638.6 155.631 1635.54 151.761C1634.27 150.173 1633.05 148.536 1631.77 146.972C1622.93 136.169 1613.55 125.834 1603.66 116.008C1602.18 114.545 1600.63 113.144 1599.13 111.705C1595.63 108.342 1592.11 105.005 1588.48 101.769C1586.55 100.031 1584.56 98.3687 1582.59 96.6703C1579.29 93.8297 1575.97 91.025 1572.57 88.2969C1571.58 87.4906 1570.62 86.6219 1569.62 85.8281C1569.47 85.7531 1569.32 85.6906 1569.17 85.6172C1501.11 32.0547 1415.33 0 1322.01 0C1204.64 0 1099.07 50.5375 1025.91 131.048L992.312 83.4875C992.312 83.4875 962.677 172.656 953.311 244.556C943.262 268.348 935.472 293.322 930.162 319.186C930.15 319.259 930.137 319.311 930.125 319.372C928.884 325.45 927.806 331.58 926.837 337.744C926.775 338.191 926.677 338.638 926.603 339.084C925.722 344.916 925.003 350.819 924.356 356.737C924.283 357.531 924.145 358.314 924.059 359.108C923.512 364.603 923.128 370.148 922.806 375.706C922.733 376.947 922.584 378.175 922.522 379.416C922.173 386.223 922 393.084 922 399.981C922 620.906 1101.08 799.988 1322.01 799.988C1542.91 799.988 1722 620.906 1722 399.981C1722 392.502 1721.75 385.083 1721.35 377.689ZM1546.17 292.317C1576.93 382.416 1552.77 492.302 1552.77 492.302C1552.77 492.302 1548.38 450.545 1533 443.947C1466.96 632.989 1313.12 635.197 1266.96 556.064C1319.71 567.069 1359.35 490.106 1387.92 487.911C1416.5 485.727 1418.69 465.941 1379.13 446.142C1339.57 426.381 1302.13 474.773 1234 476.944C1165.87 479.141 1157.09 422.002 1181.26 404.423C1205.42 386.845 1203.23 404.423 1223.01 413.208C1229.6 391.239 1225.21 356.081 1225.21 356.081C1225.21 356.081 1271.36 323.108 1297.74 312.116C1324.1 301.125 1324.1 276.947 1319.71 263.773C1315.32 250.573 1297.74 268.152 1297.74 268.152C1297.74 268.152 1249.39 263.773 1223.02 263.773C1207.62 246.183 1212.04 189.045 1245 140.677C1190.04 142.884 1170.27 162.645 1135.1 186.836C1107.26 181.998 1081.48 181.167 1063.89 181.389C1126.03 108.136 1218.66 61.5172 1322.01 61.5172C1405.31 61.5172 1481.63 91.8359 1540.66 141.941C1531.05 138.181 1520.46 135.725 1508.81 136.259C1583.52 193.397 1601.13 353.847 1601.13 353.847C1601.13 353.847 1579.13 283.522 1546.17 292.317Z" fill="currentColor"/>
<path d="M281.875 331.854C244.228 397.059 266.579 480.454 331.796 518.126C397.001 555.76 480.409 533.421 518.068 468.204C555.715 402.987 533.364 319.591 468.146 281.932C402.94 244.285 319.545 266.624 281.875 331.854Z" fill="currentColor"/>
<path d="M293.926 583.716C260.49 564.421 234.36 537.297 216.37 506.036L216.295 506.074L46.7855 212.502C-53.8911 401.853 12.7917 638.36 199.97 746.432C241.99 770.683 286.582 786.45 331.759 794.241L439.096 608.341C390.989 617.411 339.537 610.069 293.926 583.716Z" fill="currentColor"/>
<path d="M216.284 293.972C255.459 226.108 326.74 188.138 399.971 188.013V187.927H739.093C705.534 134.141 658.706 87.5473 599.973 53.627C428.796 -45.1995 214.992 -3.04328 92.7449 143.98L199.92 329.594C204.22 317.454 209.598 305.527 216.284 293.972Z" fill="currentColor"/>
<path d="M775.346 261.99H560.982C617.826 328.412 629.815 426.171 583.657 506.073L414.135 799.732C547.192 794.874 674.893 723.841 746.373 600.029C808.11 493.09 814.821 369.488 775.346 261.99Z" fill="currentColor"/>
</svg>
