<svg width="2445" height="601" viewBox="0 0 2445 601" fill="none" xmlns="http://www.w3.org/2000/svg">
<path d="M411.725 128.35C385.15 113.5 376.575 79.9 391.4 53.35C401.55 35.375 420.3 26 439.05 26C448.425 26 457.8 28.35 466.4 33.025C492.975 48.65 501.55 82.25 486.725 108.025C476.575 126 457.825 135.375 439.075 135.375C429.7 135.375 420.325 133.025 411.725 128.35ZM548.45 283.825H457.825C454.7 241.625 433.6 204.125 401.575 179.925C396.1 176.025 390.625 172.1 384.375 168.2C364.05 157.25 340.625 151 315.625 151C289.85 151 266.4 157.25 245.3 168.975L195.3 93.2C230.45 72.1 271.075 60.375 315.625 60.375C332.825 60.375 350 61.95 367.2 65.85C360.95 96.325 374.225 128.35 402.35 144.75C413.3 151 425.8 154.125 439.075 154.125C457.05 154.125 474.225 147.875 487.525 136.15C523.475 175.225 546.125 226.775 548.475 283.8L548.45 283.825ZM178.125 104.925L228.125 180.7C196.875 204.925 175.775 241.65 173.425 283.825C172.65 286.95 172.65 290.075 172.65 293.975C172.65 297.1 172.65 301 173.425 304.125C176.55 348.65 200 386.95 234.375 411.15L186.725 488.5C141.4 458.8 107.025 413.5 91.4 360.375C113.275 347.875 128.9 323.65 128.9 296.3C128.9 268.95 113.275 243.95 89.825 231.45C104.675 179.875 135.925 135.35 178.1 104.875L178.125 104.925ZM54.7 241.625C85.175 241.625 110.175 265.85 110.175 296.325C110.175 326.8 85.175 351.8 54.7 351.8C24.225 351.8 0 326.8 0 296.325C0 265.85 24.225 241.625 54.7 241.625ZM204.7 499.45L252.35 421.325C271.1 430.7 292.975 436.175 315.625 436.175C340.625 436.175 364.075 429.925 385.15 418.2C391.4 415.075 396.875 411.175 402.35 406.475C433.6 383.025 454.7 346.325 457.825 304.125H548.45C546.1 363.5 521.1 417.4 482.05 457.25C470.325 448.65 455.475 443.975 440.65 443.975C427.375 443.975 414.875 447.1 403.925 453.35C378.925 468.2 365.65 494.75 367.2 521.325C350 525.225 332.825 527.575 315.625 527.575C275 527.575 237.525 517.425 204.7 499.45ZM440.625 462.725C459.375 462.725 478.125 472.1 488.275 490.075C503.125 516.65 493.75 551.025 467.95 565.85C459.35 570.55 449.975 572.875 440.6 572.875C421.075 572.875 403.1 563.5 392.95 545.525C377.325 518.95 386.7 485.375 413.275 469.75C421.875 465.05 431.25 462.725 440.625 462.725Z" fill="currentColor"/>
<path d="M1017.07 8.64137L986.6 51.6164C1034.25 74.2664 1068.62 116.466 1072.55 165.691H747.55C751.45 116.466 785.05 74.2914 832.7 51.6164L802.225 8.64137C800.65 5.51637 801.45 2.39138 803.8 0.816378C806.15 -0.758622 809.275 0.0413707 811.625 2.39137L842.875 47.7164C863.2 39.8914 885.85 35.2164 910.075 35.2164C934.3 35.2164 956.175 39.9164 977.275 47.7164L1008.52 2.39137C1010.1 0.0413707 1013.22 -0.733622 1015.55 0.816378C1017.87 2.36638 1018.67 5.51637 1017.12 8.64137H1017.07ZM841.275 120.366C851.425 120.366 859.25 112.541 859.25 102.391C859.25 93.0164 851.425 84.4164 841.275 84.4164C831.9 84.4164 823.3 93.0164 823.3 102.391C823.3 112.541 831.9 120.366 841.275 120.366ZM980.35 120.366C990.5 120.366 998.325 112.541 998.325 102.391C998.325 93.0164 990.5 84.4164 980.35 84.4164C970.975 84.4164 962.375 93.0164 962.375 102.391C962.375 112.541 970.975 120.366 980.35 120.366ZM653 369.566V225.041C653 204.716 668.625 187.541 689.725 187.541C710.05 187.541 725.675 204.741 725.675 225.041V369.566C725.675 390.666 710.05 407.066 689.725 407.066C668.625 407.066 653 390.666 653 369.566ZM1092.85 369.566V225.041C1092.85 204.716 1109.25 187.541 1129.57 187.541C1149.9 187.541 1166.3 204.741 1166.3 225.041V369.566C1166.3 390.666 1149.9 407.066 1129.57 407.066C1109.25 407.066 1092.85 390.666 1092.85 369.566ZM748.325 453.166V188.316H1073.32V453.166C1073.32 468.791 1060.05 482.066 1044.42 482.066H1012.4V564.091C1012.4 584.416 996 600.816 975.675 600.816C955.35 600.816 938.95 584.416 938.95 564.091V482.066H881.925V564.091C881.925 584.416 866.3 600.816 845.975 600.816C824.875 600.816 809.25 584.416 809.25 564.091V482.066H776.425C761.575 482.066 748.325 468.791 748.325 453.166Z" fill="currentColor"/>
<path d="M1603.85 80.95C1610.1 63.75 1614 48.925 1614 34.85C1614 32.5 1613.23 30.95 1613.23 28.6C1613.23 26.25 1612.45 23.125 1611.65 20C1572.58 28.6 1545.25 45.775 1528.05 70.775C1510.85 95 1502.28 123.9 1501.48 157.5C1515.55 155.925 1527.25 153.6 1535.85 151.25C1547.58 147.35 1560.08 139.525 1572.58 127.8C1586.65 113.725 1597.58 96.55 1603.83 80.925L1603.85 80.95ZM1559.3 159.075C1535.85 166.9 1519.45 170.025 1510.85 170.025C1503.83 170.025 1488.98 166.9 1464.75 160.65C1441.3 153.625 1421.77 149.7 1404.6 149.7C1366.32 149.7 1334.27 166.1 1308.5 198.925C1283.5 231.75 1271 273.15 1271 324.7C1271 380.175 1287.4 436.425 1320.23 494.225C1353.83 552.05 1388.2 580.175 1421.8 580.175C1432.75 580.175 1446.8 576.275 1466.32 569.225C1484.3 562.2 1499.93 558.275 1513.98 558.275C1528.03 558.275 1545.23 561.4 1564.75 568.425C1585.08 575.45 1600.7 578.575 1612.4 578.575C1641.3 578.575 1670.23 556.7 1699.12 513.725C1708.5 499.65 1717.1 484.825 1724.12 470.75C1730.38 457.475 1735.85 443.4 1740.52 430.125C1719.42 423.875 1701.45 409.025 1686.62 387.15C1671.78 364.5 1663.98 339.5 1663.98 312.15C1663.98 286.375 1671 263.7 1685.07 242.625C1693.67 231.675 1706.95 217.625 1724.15 202.775C1718.67 195.75 1712.42 188.7 1706.95 183.25C1700.7 177.775 1695.22 173.1 1689.75 169.175C1667.88 155.1 1643.65 147.3 1617.1 147.3C1601.48 147.3 1581.95 152 1559.27 159.025L1559.3 159.075Z" fill="currentColor"/>
<path d="M2191.88 74.7995L2134.85 272.45C2134.85 272.45 2070 227.124 2022.35 231.824C1975.47 236.524 1912.2 259.95 1912.2 259.95L1970.02 60.7245C1970.02 60.7245 2089.55 -3.35051 2191.9 74.7995H2191.88ZM2165.32 291.2L2222.35 95.0995C2239.55 106.824 2270 127.924 2319.22 134.174C2368.45 139.649 2445 108.399 2445 108.399L2387.97 306.05C2379.37 309.175 2343.45 329.499 2277.82 333.399C2211.42 337.299 2165.32 291.2 2165.32 291.2ZM1845 493.549L1902.02 294.325C1902.02 294.325 1966.1 264.625 2020 268.55C2073.12 271.675 2116.1 301.374 2124.7 308.399L2067.67 507.624C2067.67 507.624 2002.05 464.649 1956.72 468.549C1911.4 472.449 1871.57 480.274 1845 493.549ZM2098.12 524.799L2155.15 327.149C2155.15 327.149 2216.1 367 2255.93 365.425C2295.78 364.65 2323.13 362.3 2377.03 341.2H2377.8C2373.9 351.35 2320.78 537.299 2320.78 537.299C2320.78 537.299 2258.28 566.999 2200.45 563.874C2143.43 561.524 2109.05 528.724 2098.1 524.799H2098.12Z" fill="currentColor"/>
</svg>
