<svg width="600" height="600" viewBox="0 0 600 600" fill="none" xmlns="http://www.w3.org/2000/svg">
<path d="M300 0C221.302 0 150.098 8.01132 97.0684 21.5352C70.5533 28.2971 48.6055 36.2779 31.6777 46.4844C16.58 55.5874 3.24459 67.9287 0.53125 85H0V90C0 95.16 3.63926 102.943 17.0312 112.838C30.4232 122.732 52.1194 133.005 79.6914 141.621C134.835 158.854 213.324 170 300 170C386.676 170 465.165 158.854 520.309 141.621C547.881 133.005 569.577 122.732 582.969 112.838C596.361 102.943 600 95.16 600 90H599.873C599.195 70.3187 584.847 56.4479 568.322 46.4844C551.394 36.2779 529.447 28.2971 502.932 21.5352C449.902 8.01132 378.698 0 300 0ZM0 149.68V234.107C0.704996 239.22 4.65993 246.304 16.7227 255.217C30.1147 265.111 51.8108 275.384 79.3828 284C134.527 301.233 213.015 312.379 299.691 312.379C386.368 312.379 464.856 301.233 520 284C547.572 275.384 569.268 265.111 582.66 255.217C596.052 245.322 599.691 237.539 599.691 232.379H600V149.68C581.933 161.573 559.128 171.398 532.24 179.801C471.568 198.761 390.054 210 300 210C209.946 210 128.432 198.761 67.7598 179.801C40.8718 171.398 18.0672 161.573 0 149.68ZM600 291.797C590.251 298.252 579.182 304.129 566.75 309.469C556.07 314.056 544.44 318.271 531.932 322.18C471.259 341.14 389.745 352.379 299.691 352.379C209.637 352.379 128.124 341.14 67.4512 322.18C40.7209 313.826 18.0167 304.071 0 292.271V380C0 385.16 3.63923 392.943 17.0312 402.838C30.4233 412.732 52.1194 423.005 79.6914 431.621C134.835 448.854 213.324 460 300 460C386.676 460 465.165 448.854 520.309 431.621C547.881 423.005 569.577 412.732 582.969 402.838C596.361 392.943 600 385.16 600 380V291.797ZM0 439.68V508.594V515H0.53125C3.24459 532.071 16.58 544.413 31.6777 553.516C48.6056 563.722 70.5533 571.703 97.0684 578.465C150.099 591.989 221.302 600 300 600C378.698 600 449.901 591.989 502.932 578.465C529.447 571.703 551.394 563.722 568.322 553.516C583.42 544.413 596.755 532.071 599.469 515H600V508.594V439.68C581.933 451.573 559.128 461.398 532.24 469.801C471.567 488.761 390.054 500 300 500C209.946 500 128.433 488.761 67.7598 469.801C40.8718 461.398 18.0672 451.573 0 439.68Z" fill="currentColor"/>
</svg>
