<svg width="800" height="619" viewBox="0 0 800 619" fill="none" xmlns="http://www.w3.org/2000/svg">
<path d="M650.112 215.694L500.819 215.844C476.469 215.844 456.25 235.656 456.25 260.006V571.575C456.25 595.925 476.462 618.75 500.819 618.75H501.025L650.012 617.1C674.362 617.1 694.225 596.531 694.225 572.181L694.4 260.381C694.4 235.95 674.55 215.694 650.112 215.694ZM562.369 237.5H588.75C595.65 237.5 601.25 243.1 601.25 250C601.25 256.9 595.65 262.5 588.75 262.5H562.369C555.469 262.5 549.869 256.9 549.869 250C549.869 243.1 555.462 237.5 562.369 237.5ZM516.813 238.994C521.5 234.369 529.812 234.369 534.5 238.994C536.812 241.369 538.125 244.556 538.125 247.869C538.125 251.119 536.812 254.369 534.5 256.681C532.187 258.994 528.931 260.369 525.625 260.369C522.369 260.369 519.125 258.994 516.813 256.681C514.5 254.369 513.125 251.119 513.125 247.869C513.131 244.55 514.5 241.3 516.813 238.994ZM575.556 603.406C565.212 603.406 556.794 594.988 556.794 584.65C556.794 574.313 565.212 565.894 575.556 565.894C585.9 565.894 594.319 574.306 594.319 584.65C594.319 594.994 585.9 603.406 575.556 603.406ZM668.75 550C668.75 553.45 665.956 556.25 662.5 556.25H487.5C484.044 556.25 481.25 553.45 481.25 550V287.5C481.25 284.05 484.044 281.25 487.5 281.25H662.5C665.956 281.25 668.75 284.05 668.75 287.5V550Z" fill="currentColor"/>
<path d="M793.575 462.5H756.25V47.6125C756.25 19.375 733.244 0 705.013 0H94.9875C66.7437 0 43.75 19.375 43.75 47.6125V462.5H6.4125C2.9625 462.5 0 461.525 0 464.975V470.8C0 502.125 25.6438 531.25 56.9625 531.25H468.75V437.5H81.25V56.25H718.75V437.5H687.5V531.25H743.013C774.35 531.25 800 502.125 800 470.8V464.975C800 461.525 797.025 462.5 793.575 462.5ZM408.806 36.2375C406.487 38.5563 403.3 39.8625 399.994 39.8625C396.688 39.8625 393.488 38.5563 391.181 36.2375C388.8 33.8688 387.494 30.675 387.494 27.3625C387.494 24.05 388.8 20.8625 391.181 18.55C395.806 13.8625 404.181 13.8625 408.806 18.55C411.175 20.8625 412.494 24.1125 412.494 27.3625C412.494 30.675 411.175 33.8625 408.806 36.2375Z" fill="currentColor"/>
</svg>
