<svg width="1777" height="800" viewBox="0 0 1777 800" fill="none" xmlns="http://www.w3.org/2000/svg">
<path d="M712.5 0C760.825 0 800 39.1751 800 87.5V712.5C800 760.825 760.825 800 712.5 800H87.5C39.1751 800 0 760.825 0 712.5V87.5C0 39.1751 39.1751 0 87.5 0H712.5ZM493.153 294.368V470.604C493.153 548.285 489.092 577.852 476.335 603.358C464.162 628.296 445.032 644.524 405.609 663.074L488.512 702.496C527.93 682.783 547.064 664.816 561.56 636.404C577.211 606.837 582.429 572.635 582.429 501.326V294.368H493.153ZM351.123 156.496V292.629C337.787 289.151 326.772 287.995 312.28 287.995C218.947 287.995 158.652 347.123 158.652 438.141C158.652 532.64 215.465 581.914 324.457 581.914C360.977 581.914 394.603 578.435 440.401 569.74V156.496H351.123ZM320.979 359.876C331.993 359.876 340.689 361.035 351.123 364.51V507.711C338.37 509.446 330.25 510.025 320.399 510.025C274.601 510.025 249.671 483.94 249.671 436.398C249.671 387.705 275.76 359.876 320.979 359.876ZM493.153 156.971V248.568H582.429V156.971H493.153Z" fill="currentColor"/>
<path d="M1377 0C1156.17 0 977 179.167 977 400C977 620.9 1156.17 800 1377 800C1597.87 800 1777 620.9 1777 400C1777 179.167 1597.9 0 1377 0ZM1356.2 720.667V469.733H1216.67L1417.1 79.3333V330.267H1551.4L1356.2 720.667Z" fill="currentColor"/>
</svg>
