<svg width="720" height="800" viewBox="0 0 720 800" fill="none" xmlns="http://www.w3.org/2000/svg">
<path d="M690.336 82.5484H483.217C467.053 82.5484 453.949 95.6531 453.949 111.817C453.949 127.981 467.053 141.086 483.217 141.086H486.511V170.828H418.864V157.908C418.864 141.744 405.76 128.639 389.596 128.639H389.267V29.2688C389.269 13.1047 376.164 0 360 0C343.836 0 330.731 13.1047 330.731 29.2688V128.636H330.403C314.239 128.636 301.135 141.741 301.135 157.905V170.825H233.502V141.084H236.781C252.946 141.084 266.05 127.98 266.05 111.816C266.05 95.6516 252.946 82.5469 236.781 82.5469H29.6643C13.5002 82.5469 0.395508 95.6516 0.395508 111.816C0.395508 127.98 13.5002 141.084 29.6643 141.084H32.958V288.369V288.37V479.688C32.958 535.086 77.7533 579.961 133.231 579.961C188.521 579.961 233.505 534.978 233.505 479.688V288.375V229.364H301.139V242.284C301.139 258.448 314.244 271.553 330.408 271.553H330.731V656.972H194.927C178.763 656.972 165.658 670.077 165.658 686.241V770.733C165.658 786.897 178.763 800.002 194.927 800.002H525.074C541.238 800.002 554.342 786.897 554.342 770.733V686.239C554.342 670.075 541.238 656.97 525.074 656.97H389.269V271.552H389.596C405.76 271.552 418.864 258.447 418.864 242.283V229.363H486.511V288.372V288.373V479.686C486.511 535.084 531.306 579.959 586.785 579.959C642.074 579.959 687.058 534.977 687.058 479.686V288.369V288.367V141.086H690.338C706.502 141.086 719.606 127.981 719.606 111.817C719.603 95.6531 706.5 82.5484 690.336 82.5484ZM133.224 488.319C115.842 488.319 101.752 474.23 101.752 456.847C101.752 439.464 115.841 425.375 133.224 425.375C150.606 425.375 164.696 439.464 164.696 456.847C164.692 474.227 150.603 488.319 133.224 488.319ZM117.005 382.55C117.005 373.592 124.266 366.333 133.224 366.333C142.18 366.333 149.441 373.594 149.441 382.55C149.441 391.506 142.18 398.769 133.224 398.769C124.267 398.769 117.005 391.508 117.005 382.55ZM174.966 259.103H91.4924V141.092H174.966C174.966 144.684 174.966 225.906 174.966 259.103ZM586.778 488.319C569.397 488.319 555.306 474.23 555.306 456.847C555.306 439.464 569.396 425.375 586.778 425.375C604.16 425.375 618.25 439.464 618.25 456.847C618.249 474.227 604.158 488.319 586.778 488.319ZM570.563 382.55C570.563 373.592 577.824 366.333 586.78 366.333C595.736 366.333 602.997 373.594 602.997 382.55C602.997 391.506 595.736 398.769 586.78 398.769C577.822 398.769 570.563 391.508 570.563 382.55ZM628.521 259.103H545.047V141.092H628.521V259.103Z" fill="currentColor"/>
</svg>
