<svg width="2064" height="720" viewBox="0 0 2064 720" fill="none" xmlns="http://www.w3.org/2000/svg">
<path d="M402.187 289.1C415.992 289.101 429.489 293.186 440.977 300.841C452.465 308.497 461.432 319.38 466.749 332.12C472.065 344.861 473.494 358.89 470.854 372.441C468.215 385.992 461.626 398.459 451.916 408.273C442.206 418.087 429.81 424.809 416.289 427.592C402.767 430.376 388.724 429.097 375.928 423.916C363.132 418.735 352.155 409.884 344.378 398.477C336.601 387.07 332.373 373.618 332.225 359.813C332.176 350.576 333.947 341.42 337.436 332.867C340.925 324.314 346.065 316.532 352.561 309.966C359.058 303.4 366.784 298.178 375.299 294.597C383.814 291.017 392.95 289.149 402.187 289.1ZM228.966 659.126C252.536 673.343 303.792 651.643 363.652 595.522C343.645 572.785 324.79 549.06 307.159 524.435C276.982 521.055 247.009 516.06 217.368 509.469C198.288 589.536 205.396 644.534 228.966 659.126ZM255.529 444.369L244.679 425.288C240.45 435.797 236.827 446.54 233.83 457.464C243.931 459.709 255.155 461.579 266.753 463.45L255.529 444.369ZM500.208 415.934L530.513 359.813L500.208 303.692C488.985 283.862 477.013 266.278 466.163 248.693C445.96 247.571 424.635 247.571 402.187 247.571C379.739 247.571 358.414 247.571 338.211 247.571C327.362 265.155 315.389 282.74 304.166 302.569L273.861 359.813L304.166 415.934C315.389 435.764 327.362 453.348 338.211 470.933C358.414 470.933 379.739 470.933 402.187 470.933C424.635 470.933 445.96 470.933 466.163 470.933C477.013 453.348 488.985 435.764 500.208 415.934ZM402.187 164.511C395.079 172.742 387.596 181.348 380.114 191.449H424.261C416.778 181.348 409.295 172.742 402.187 164.511ZM402.187 555.115C409.295 546.884 416.778 538.278 424.261 528.177H380.114C387.596 538.278 395.079 546.884 402.187 555.115ZM575.034 60.4999C551.838 46.2825 500.208 67.9827 440.722 124.104C460.729 146.841 479.584 170.566 497.215 195.191C527.364 198.076 557.337 202.572 587.006 208.66C606.087 128.594 598.978 73.5948 575.034 59.0033M548.845 273.76L559.695 292.842C563.924 282.333 567.547 271.59 570.544 260.666C560.443 258.421 549.219 256.55 537.621 254.679L548.845 273.76ZM603.094 11.8615C658.09 43.2894 664.076 125.975 640.506 222.503C735.535 250.564 804 297.331 804 360.187C804 423.043 735.535 469.81 640.506 497.871C663.702 594.4 657.716 677.085 603.094 708.513C548.471 739.94 474.02 704.023 402.187 635.555C330.355 704.023 255.903 739.94 200.906 708.513C145.91 677.085 140.298 596.27 163.494 497.871C68.4653 469.81 0 423.043 0 360.187C0 297.331 68.4653 250.19 163.494 222.129C140.298 125.6 146.284 42.9152 200.906 11.4874C255.529 -19.9405 330.355 15.9771 402.187 84.4449C474.02 15.9771 548.471 -19.9405 603.094 11.4874M592.244 359.813C605.237 387.355 616.727 415.582 626.664 444.369C705.23 420.798 749.377 387.125 749.377 359.813C749.377 332.501 704.108 298.828 626.664 275.257C616.727 304.044 605.237 332.271 592.244 359.813ZM212.13 359.813C199.137 332.271 187.647 304.044 177.711 275.257C99.1438 298.828 54.9967 332.501 54.9967 359.813C54.9967 387.125 100.266 420.798 177.711 444.369C187.647 415.582 199.137 387.355 212.13 359.813ZM548.845 444.369L537.621 463.45C549.219 463.45 560.443 459.709 570.544 457.464C567.547 446.54 563.924 435.797 559.695 425.288L548.845 444.369ZM439.6 595.522C499.086 651.643 551.838 673.343 573.912 659.126C595.985 644.909 604.964 591.032 585.884 509.469C556.215 515.557 526.242 520.053 496.093 522.939C478.503 548.074 459.647 572.299 439.6 595.522ZM255.529 275.257L266.753 256.176C255.155 256.176 243.931 259.917 233.83 262.162C236.827 273.086 240.45 283.829 244.679 294.338L255.529 275.257ZM364.774 124.104C304.166 67.9827 252.536 46.2825 228.966 60.4999C205.396 74.7173 198.288 128.594 217.368 210.156C247.037 204.069 277.01 199.573 307.159 196.687C325.113 171.526 344.344 147.3 364.774 124.104Z" fill="currentColor"/>
<path fill-rule="evenodd" clip-rule="evenodd" d="M1972.03 131.69C1998.66 172.708 2001.41 217.182 1987.8 250.868C1962.7 227.139 1932.62 210.142 1901.05 201.778C1901.42 194.806 1899.67 187.656 1895.58 181.351C1885.29 165.514 1864.12 161.012 1848.29 171.298L1771.9 220.917C1771.88 220.931 1771.86 220.944 1771.83 220.959L1657.15 295.449C1641.32 305.735 1636.82 326.911 1647.1 342.749C1657.38 358.586 1678.56 363.088 1694.39 352.803L1809.1 278.291C1809.12 278.283 1809.09 278.297 1809.1 278.291C1852.62 250.054 1922.86 265.228 1963.35 327.591C2003.85 389.969 1989.13 460.341 1945.61 488.607L1716.25 637.588C1672.73 665.854 1602.47 650.686 1561.97 588.309C1535.34 547.291 1532.58 502.818 1546.2 469.131C1571.3 492.861 1601.38 509.857 1632.95 518.223C1632.58 525.193 1634.33 532.347 1638.42 538.647C1648.7 554.485 1669.88 558.99 1685.71 548.705L1876.85 424.551C1892.68 414.266 1897.18 393.089 1886.9 377.252C1876.62 361.414 1855.44 356.912 1839.61 367.198L1724.92 441.696C1724.92 441.694 1724.91 441.699 1724.92 441.696C1681.4 469.951 1611.14 454.783 1570.65 392.41C1530.15 330.032 1544.87 259.659 1588.39 231.394L1817.75 82.4116C1861.27 54.1459 1931.53 69.3125 1972.03 131.69ZM2032.6 311.107C2076.13 250.976 2073.79 162.862 2029.37 94.4448C1973.9 9.00478 1863.67 -28.957 1780.52 25.0583L1551.15 174.041C1474.56 223.792 1459.89 326.264 1501.4 408.894C1457.87 469.026 1460.21 557.139 1504.63 625.556C1560.1 710.998 1670.33 748.956 1753.48 694.941L1982.85 545.96C2059.44 496.207 2074.11 393.736 2032.6 311.107Z" fill="currentColor"/>
<path fill-rule="evenodd" clip-rule="evenodd" d="M823.386 436.866C814.056 459.273 808.844 483.178 808 507.434C809.287 522.394 814.39 536.774 822.821 549.2C838.686 567.563 857.764 582.882 879.121 594.407L1017.06 686.221C1034.03 699.726 1053.12 710.339 1073.55 717.633C1086.81 720.789 1100.63 720.789 1113.9 717.633C1134.46 710.429 1153.7 699.889 1170.84 686.436L1310.26 594.569C1331.84 583.01 1351.13 567.628 1367.21 549.173C1375.7 536.68 1380.79 522.195 1382 507.138C1381.08 482.685 1375.73 458.601 1366.21 436.059L1244.28 52.3991C1241.55 39.9738 1236.64 28.1342 1229.75 17.4377C1224.74 11.3463 1218.26 6.62703 1210.92 3.72214C1198.66 0.399372 1185.91 -0.711676 1173.26 0.441155H1014.5C1001.85 -0.708751 989.095 0.429995 976.846 3.80282C969.492 6.70185 963.007 11.4436 958.016 17.5722C951.162 28.2692 946.287 40.1115 943.625 52.5336L823.386 436.866ZM1179.53 81.8742C1185.2 90.8889 1189.22 100.843 1191.39 111.269L1296.08 455.073C1256.76 434.681 1214.55 420.416 1170.92 412.77L1102.89 182.563C1102.48 181.203 1101.74 179.963 1100.74 178.948C1099.75 177.932 1098.52 177.169 1097.17 176.724C1095.82 176.279 1094.38 176.164 1092.98 176.389C1091.57 176.614 1090.24 177.173 1089.1 178.018C1087.56 179.141 1086.43 180.738 1085.89 182.563L1018.65 412.689C974.809 420.319 932.405 434.641 892.92 455.154L998.042 111.349C1000.19 100.904 1004.22 90.9362 1009.93 81.928C1014.1 76.8192 1019.48 72.842 1025.59 70.3638C1035.88 67.5832 1046.58 66.6723 1057.19 67.6745H1132.32C1142.94 66.6714 1153.66 67.5822 1163.96 70.3638C1170.08 72.8492 1175.48 76.8463 1179.64 81.9818L1179.53 81.8742ZM1098.48 496.381C1130.86 498.255 1162.96 489.542 1189.94 471.559C1193.01 481.211 1194.09 491.384 1193.14 501.467C1192.18 511.549 1189.2 521.336 1184.37 530.24C1174.45 547.105 1160.04 560.891 1142.76 570.069C1124.63 581.579 1109.03 591.584 1109.03 618.127C1109.01 626.642 1110.93 635.049 1114.65 642.708C1102.42 637.631 1091.98 629.047 1084.63 618.037C1077.28 607.028 1073.36 594.089 1073.36 580.853V579.213C1073.36 560.844 1073.36 538.227 1047.48 538.227C1043.88 538.225 1040.3 538.928 1036.97 540.298C1030.25 543.078 1024.91 548.407 1022.12 555.116C1020.73 558.449 1020.01 562.021 1019.99 565.631C1002.26 546.266 992.728 520.774 993.416 494.525C993.29 483.165 994.877 471.85 998.123 460.963C1008.88 481.321 1049.77 496.462 1098.48 496.462V496.381Z" fill="currentColor"/>
</svg>
