<svg width="800" height="800" viewBox="0 0 800 800" fill="none" xmlns="http://www.w3.org/2000/svg">
<path d="M250 800V535C220 520 200 485 200 450V250C200 215 220 185 250 165C250 160 250 155 250 150C250 95 205 50 150 50C95 50 50 95 50 150C50 205 95 250 150 250H50C25 250 0 275 0 300V500C0 525 25 550 50 550V800H250Z" fill="currentColor"/>
<path d="M750 250H650C705 250 750 205 750 150C750 95 705 50 650 50C595 50 550 95 550 150C550 155 550 160 550 165C580 185 600 215 600 250V450C600 485 580 520 550 535V800H750V550C775 550 800 525 800 500V300C800 275 775 250 750 250Z" fill="currentColor"/>
<path d="M500 100C500 155.25 455.25 200 400 200C344.75 200 300 155.25 300 100C300 44.75 344.75 0 400 0C455.25 0 500 44.75 500 100Z" fill="currentColor"/>
<path d="M500 200H300C275 200 250 225 250 250V450C250 475 275 500 300 500V800H500V500C525 500 550 475 550 450V250C550 225 525 200 500 200Z" fill="currentColor"/>
</svg>
