<svg width="2402" height="802" viewBox="0 0 2402 802" fill="none" xmlns="http://www.w3.org/2000/svg">
<path fill-rule="evenodd" clip-rule="evenodd" d="M2215.12 737.285C2145.32 737.285 2100.2 704.008 2078.2 660.488L2139.4 625.039C2155.52 651.359 2176.44 670.684 2213.52 670.684C2244.64 670.684 2264.52 655.113 2264.52 633.633C2264.52 601.313 2221.4 588.685 2190.96 575.645C2136.72 552.565 2100.72 523.564 2100.72 462.324C2100.72 405.964 2143.68 363.008 2210.84 363.008C2258.6 363.008 2293 379.645 2317.68 423.125L2259.16 460.723C2246.28 437.643 2232.32 428.516 2210.84 428.516C2188.8 428.516 2174.84 442.483 2174.84 460.723C2174.84 483.283 2188.8 492.407 2221.04 506.367C2288.6 535.327 2339.72 558.079 2339.72 632.559C2339.72 700.239 2286.56 737.285 2215.12 737.285ZM2042 623.965C2042 701.845 1994.04 743.008 1927.44 743.008C1867.28 743.008 1831.24 720 1813.52 680H1812.92H1812.64H1812.48L1873.64 637.246C1885.44 658.166 1896.08 673.008 1921.84 673.008C1946.56 673.008 1962 660.49 1962 622.93V360H2042V623.965ZM1602 800H2402V0H1602V800Z" fill="currentColor"/>
<path d="M1515.72 2L1449.17 722.803L1160.86 800.434L872.533 722.803L806 2H1515.72ZM1381.63 148.564H1160.6H935.652L946.409 235.608H1160.6H1172.63L1160.6 240.616L954.238 326.562L961.081 411.645L1160.6 412.292L1267.53 412.631L1260.69 526.078L1160.6 554.258V554.169L1159.77 554.397L1063.11 529.995L1057.25 459.573H1056.93H967.267H966.952L978.687 595.522L1160.6 649.317V649.22L1160.93 649.317L1341.86 596.502L1365.33 326.562H1160.6H1160.09L1160.6 326.344L1372.83 235.608L1381.63 148.564Z" fill="currentColor"/>
<path fill-rule="evenodd" clip-rule="evenodd" d="M577.403 242H577.118H232.479L240.721 322H569.203C564.388 392.08 549.823 540.553 544.478 608.113L359.98 660.047V660.203L359.572 660.398L174.951 595.438L162.303 442H252.798L259.203 524.52L359.735 562H359.98L460.348 526.004L470.67 402H158.264C156.754 385.96 137.333 177.68 133.947 162H585.482C582.952 188.4 580.382 215.52 577.403 242ZM0 2L65.525 727.918L359.572 802L654.393 726.434L720 2H0Z" fill="currentColor"/>
</svg>
