<svg width="800" height="700" viewBox="0 0 800 700" fill="none" xmlns="http://www.w3.org/2000/svg">
<path d="M725 0H75C32.5 0 0 32.5 0 75V475C0 517.5 32.5 550 75 550H725C767.5 550 800 517.5 800 475V75C800 32.5 767.5 0 725 0ZM192.5 307.5C202.5 317.5 202.5 332.5 192.5 342.5C187.5 347.5 182.5 350 175 350C167.5 350 162.5 347.5 157.5 342.5L107.5 292.5C97.5 282.5 97.5 267.5 107.5 257.5L157.5 207.5C167.5 197.5 182.5 197.5 192.5 207.5C202.5 217.5 202.5 232.5 192.5 242.5L160 275L192.5 307.5ZM692.5 292.5L642.5 342.5C637.5 347.5 632.5 350 625 350C617.5 350 612.5 347.5 607.5 342.5C597.5 332.5 597.5 317.5 607.5 307.5L640 275L607.5 242.5C597.5 232.5 597.5 217.5 607.5 207.5C617.5 197.5 632.5 197.5 642.5 207.5L692.5 257.5C702.5 267.5 702.5 282.5 692.5 292.5Z" fill="currentColor"/>
<path d="M400 700C427.614 700 450 677.614 450 650C450 622.386 427.614 600 400 600C372.386 600 350 622.386 350 650C350 677.614 372.386 700 400 700Z" fill="currentColor"/>
<path d="M250 700C277.614 700 300 677.614 300 650C300 622.386 277.614 600 250 600C222.386 600 200 622.386 200 650C200 677.614 222.386 700 250 700Z" fill="currentColor"/>
<path d="M550 700C577.614 700 600 677.614 600 650C600 622.386 577.614 600 550 600C522.386 600 500 622.386 500 650C500 677.614 522.386 700 550 700Z" fill="currentColor"/>
</svg>
