<svg width="700" height="500" viewBox="0 0 700 500" fill="none" xmlns="http://www.w3.org/2000/svg">
<path d="M662.5 -0.000659669H37.5C27.6864 -0.130563 18.223 3.64244 11.1907 10.4887C4.15848 17.3349 0.133178 26.6938 0 36.5073V463.491C0.133442 473.305 4.15882 482.664 11.191 489.51C18.2232 496.356 27.6865 500.129 37.5 499.999H662.5C672.314 500.129 681.777 496.356 688.809 489.51C695.841 482.664 699.867 473.305 700 463.491V36.5073C699.867 26.6938 695.842 17.3349 688.809 10.4887C681.777 3.64244 672.314 -0.130563 662.5 -0.000659669ZM348.25 352.949H298.687V238.655L249.125 317.477L199.563 238.655V352.949H150V146.699H195.5L249.125 225.518L302.75 146.699H348.25V352.949ZM471.192 353.304L392.383 247.239H447.374V146.699H496.937V247.239H550L471.192 353.304Z" fill="currentColor"/>
</svg>
