<svg width="800" height="778" viewBox="0 0 800 778" fill="none" xmlns="http://www.w3.org/2000/svg">
<path d="M800 388.998L673.162 169.228H477.639L380.535 0.966797H126.831L0 220.737L97.1039 388.998L0 557.259L126.831 777.029H380.538L477.642 608.768H673.165L800 388.998ZM186.32 103.984H321.046L388.426 220.737L321.046 337.489H186.32L118.94 220.737L186.32 103.984ZM321.046 674.012H186.32L118.94 557.259L186.32 440.506H321.046L388.426 557.259L321.046 674.012ZM478.951 505.751L411.571 388.998L478.951 272.245H613.673L681.053 388.998L613.673 505.751H478.951Z" fill="currentColor"/>
</svg>
