<svg width="800" height="716" viewBox="0 0 800 716" fill="none" xmlns="http://www.w3.org/2000/svg">
<path d="M41.3874 690.474C18.5236 690.474 0 671.95 0 649.087V42.0808C0 19.22 18.5236 0.693359 41.3874 0.693359C64.2513 0.693359 82.7749 19.217 82.7749 42.0808V649.087C82.7718 671.95 64.2482 690.474 41.3874 690.474Z" fill="currentColor"/>
<path d="M184.831 638.044C161.97 638.044 143.443 619.52 143.443 596.656V127.619C143.443 104.758 161.967 86.2314 184.831 86.2314C207.695 86.2314 226.218 104.755 226.218 127.619V596.659C226.218 619.52 207.692 638.044 184.831 638.044Z" fill="currentColor"/>
<path d="M471.721 662.877C448.861 662.877 430.334 644.353 430.334 621.489V127.619C430.334 104.758 448.858 86.2314 471.721 86.2314C494.585 86.2314 513.109 104.755 513.109 127.619V621.492C513.109 644.353 494.582 662.877 471.721 662.877Z" fill="currentColor"/>
<path d="M615.169 715.304C592.308 715.304 573.781 696.78 573.781 673.917V72.4411C573.781 49.5804 592.305 31.0537 615.169 31.0537C638.029 31.0537 656.556 49.5773 656.556 72.4411V673.92C656.553 696.78 638.029 715.304 615.169 715.304Z" fill="currentColor"/>
<path d="M758.612 690.474C735.751 690.474 717.225 671.95 717.225 649.087V42.0808C717.225 19.22 735.748 0.693359 758.612 0.693359C781.476 0.693359 799.999 19.217 799.999 42.0808V649.087C799.999 671.95 781.473 690.474 758.612 690.474Z" fill="currentColor"/>
<path d="M328.278 580.105C305.417 580.105 286.891 561.582 286.891 538.718V193.837C286.891 170.976 305.414 152.449 328.278 152.449C351.142 152.449 369.666 170.973 369.666 193.837V538.718C369.662 561.579 351.139 580.105 328.278 580.105Z" fill="currentColor"/>
</svg>
