<svg width="800" height="798" viewBox="0 0 800 798" fill="none" xmlns="http://www.w3.org/2000/svg">
<path d="M364.763 173.822L142.107 214.985C134.416 216.474 97.5023 223.358 75.1883 262.397C71.282 269.208 29.168 353.022 29.168 353.022L80.7555 385.079L133.734 320.943L198.626 366.329L364.763 173.822Z" fill="currentColor"/>
<path d="M626.311 435.346L585.148 658.002C583.659 665.693 576.75 702.632 537.736 724.946C530.925 728.827 447.086 770.943 447.086 770.943L415.029 719.355L479.165 666.377L433.779 601.483L626.311 435.346Z" fill="currentColor"/>
<path d="M243.401 404.658L231.634 417.988C217.277 435.713 218.621 461.446 234.784 477.583L322.552 565.352C338.69 581.514 364.398 582.857 382.148 568.502L395.477 556.735L243.401 404.658Z" fill="currentColor"/>
<path d="M774.237 25.8975C692.45 -55.89 513.495 74.7006 429.851 170.893L257.561 366.694L433.44 542.574L629.242 370.26C725.432 286.616 856.023 107.66 774.237 25.8975ZM414.518 385.59C395.451 366.546 395.451 335.663 414.518 316.596C433.562 297.529 464.47 297.529 483.512 316.596C502.579 335.663 502.579 366.547 483.537 385.59C464.47 404.658 433.562 404.658 414.518 385.59ZM546.257 253.852C519.109 226.704 519.109 182.71 546.282 155.585C573.406 128.412 617.425 128.412 644.55 155.56C671.698 182.708 671.698 226.702 644.55 253.851C617.425 281.001 573.406 281.001 546.257 253.852Z" fill="currentColor"/>
<path d="M257.512 724.555L308.44 596.185L278.923 566.693L251.945 617.84L237.979 589.935L187.1 608.759L213.589 557.148L185.707 543.207L230.604 518.377L201.746 489.496C174.55 504.17 77.9434 540.252 77.9434 540.252C77.1871 540.546 76.698 541.229 76.6496 542.01C76.5762 542.816 76.9668 543.548 77.6262 543.963L126.87 574.262C127.798 574.848 128.14 576.02 127.651 576.996L57.3137 645.82C56.923 646.601 59.1449 649.018 59.9512 648.724L108.168 656.268L-0.00976562 764.446L33.4621 797.87L161.978 669.354L162.003 725.018C162.003 725.873 162.492 726.629 163.296 726.971C164.078 727.288 164.957 727.118 165.567 726.532L214.689 677.41C215.104 676.971 215.69 676.751 216.325 676.799C216.936 676.824 217.471 677.116 217.839 677.605L253.898 725.041C254.337 725.652 255.07 725.945 255.826 725.848C256.609 725.727 257.22 725.24 257.512 724.555Z" fill="currentColor"/>
</svg>
