<svg width="668" height="600" viewBox="0 0 668 600" fill="none" xmlns="http://www.w3.org/2000/svg">
<path fill-rule="evenodd" clip-rule="evenodd" d="M51.1837 424.16C60.2343 423.54 71.7973 423.53 88.3863 423.53H579.614C596.204 423.53 607.767 423.54 616.817 424.16C625.71 424.77 630.89 425.914 634.844 427.56C647.74 432.934 657.987 443.24 663.327 456.21C664.964 460.187 666.1 465.397 666.707 474.344C667.324 483.447 667.334 495.077 667.334 511.764C667.334 528.45 667.324 540.084 666.707 549.187C666.1 558.134 664.964 563.34 663.327 567.32C657.987 580.29 647.74 590.597 634.844 595.97C630.89 597.617 625.71 598.76 616.817 599.37C607.767 599.99 596.204 600 579.614 600H88.3863C71.7973 600 60.2343 599.99 51.1837 599.37C42.2903 598.76 37.1113 597.617 33.1573 595.97C20.261 590.597 10.015 580.29 4.67332 567.32C3.03532 563.34 1.90066 558.134 1.29399 549.187C0.676327 540.084 0.666992 528.45 0.666992 511.764C0.666992 495.077 0.676327 483.447 1.29399 474.344C1.90066 465.397 3.03532 460.187 4.67332 456.21C10.015 443.24 20.261 432.934 33.1573 427.56C37.1113 425.914 42.2903 424.77 51.1837 424.16ZM88.3863 547.06C107.765 547.06 123.474 531.257 123.474 511.764C123.474 492.274 107.765 476.47 88.3863 476.47C69.008 476.47 53.2987 492.274 53.2987 511.764C53.2987 531.257 69.008 547.06 88.3863 547.06Z" fill="currentColor"/>
<path fill-rule="evenodd" clip-rule="evenodd" d="M88.3863 176.471C71.7973 176.471 60.2343 176.461 51.1837 175.84C42.2903 175.23 37.1113 174.088 33.1573 172.441C20.261 167.067 10.015 156.761 4.67332 143.789C3.03532 139.812 1.90066 134.602 1.29399 125.657C0.676327 116.553 0.666992 104.922 0.666992 88.2353C0.666992 71.549 0.676327 59.9177 1.29399 50.8137C1.90066 41.8683 3.03532 36.659 4.67332 32.6813C10.015 19.7093 20.261 9.403 33.1573 4.03C37.1113 2.38233 42.2903 1.241 51.1837 0.630665C60.2343 0.00966483 71.7973 0 88.3863 0H579.614C596.204 0 607.767 0.00966483 616.817 0.630665C625.71 1.241 630.89 2.38233 634.844 4.03C647.74 9.403 657.987 19.7093 663.327 32.6813C664.964 36.659 666.1 41.8683 666.707 50.8137C667.324 59.9177 667.334 71.549 667.334 88.2353C667.334 104.922 667.324 116.553 666.707 125.657C666.1 134.602 664.964 139.812 663.327 143.789C657.987 156.761 647.74 167.067 634.844 172.441C630.89 174.088 625.71 175.23 616.817 175.84C607.767 176.461 596.204 176.471 579.614 176.471H88.3863ZM88.3863 211.765C71.7973 211.765 60.2343 211.774 51.1837 212.395C42.2903 213.006 37.1113 214.147 33.1573 215.795C20.261 221.168 10.015 231.474 4.67332 244.447C3.03532 248.423 1.90066 253.633 1.29399 262.58C0.676327 271.683 0.666992 283.313 0.666992 300C0.666992 316.687 0.676327 328.317 1.29399 337.42C1.90066 346.367 3.03532 351.577 4.67332 355.553C10.015 368.527 20.261 378.833 33.1573 384.207C37.1113 385.853 42.2903 386.993 51.1837 387.603C60.2343 388.227 71.7973 388.237 88.3863 388.237H579.614C596.204 388.237 607.767 388.227 616.817 387.603C625.71 386.993 630.89 385.853 634.844 384.207C647.74 378.833 657.987 368.527 663.327 355.553C664.964 351.577 666.1 346.367 666.707 337.42C667.324 328.317 667.334 316.687 667.334 300C667.334 283.313 667.324 271.683 666.707 262.58C666.1 253.633 664.964 248.423 663.327 244.447C657.987 231.474 647.74 221.168 634.844 215.795C630.89 214.147 625.71 213.006 616.817 212.395C607.767 211.774 596.204 211.765 579.614 211.765H88.3863ZM123.474 300C123.474 319.493 107.765 335.293 88.3863 335.293C69.008 335.293 53.2987 319.493 53.2987 300C53.2987 280.507 69.008 264.707 88.3863 264.707C107.765 264.707 123.474 280.507 123.474 300ZM88.3863 123.529C107.765 123.529 123.474 107.728 123.474 88.2353C123.474 68.743 107.765 52.9413 88.3863 52.9413C69.008 52.9413 53.2987 68.743 53.2987 88.2353C53.2987 107.728 69.008 123.529 88.3863 123.529Z" fill="currentColor"/>
</svg>
