<svg width="800" height="560" viewBox="0 0 800 560" fill="none" xmlns="http://www.w3.org/2000/svg">
<path d="M229.026 193.229C229.192 190.66 228.329 188.128 226.63 186.195L149.715 98.69C148.015 96.7566 145.617 95.5775 143.046 95.4115C140.464 95.2468 137.945 96.1083 136.012 97.8076C100.669 128.874 71.3331 165.512 48.8141 206.703C47.5801 208.963 47.2913 211.621 48.0154 214.09C48.7396 216.561 50.4154 218.643 52.6756 219.877L154.904 275.757C156.383 276.566 157.979 276.949 159.554 276.949C162.988 276.949 166.317 275.121 168.081 271.895C182.964 244.669 202.367 220.446 225.746 199.895C227.683 198.198 228.863 195.8 229.026 193.229Z" fill="currentColor"/>
<path d="M263.349 160.822C265.093 164.11 268.456 165.983 271.935 165.983C273.47 165.983 275.026 165.618 276.475 164.85C303.876 150.318 333.353 140.835 364.089 136.665C369.402 135.945 373.126 131.053 372.406 125.74L356.747 10.294C356.026 4.9816 351.121 1.26265 345.821 1.97768C299.144 8.3084 254.385 22.7058 212.786 44.7698C208.05 47.2823 206.247 53.1568 208.757 57.8953L263.349 160.822Z" fill="currentColor"/>
<path d="M138.281 317.052L25.8405 286.545C23.3556 285.873 20.7046 286.211 18.4706 287.492C16.2366 288.773 14.6039 290.888 13.9281 293.373C4.68758 327.444 0 362.756 0 398.33C0 404.418 0.145098 410.525 0.447059 417.002C0.688889 422.206 4.98039 426.261 10.1386 426.261C10.2902 426.261 10.4444 426.258 10.5961 426.251L126.976 420.874C129.548 420.756 131.97 419.619 133.702 417.717C135.437 415.815 136.345 413.299 136.225 410.728C136.022 406.36 135.924 402.304 135.924 398.33C135.924 374.775 139.016 351.437 145.112 328.963C146.512 323.789 143.455 318.457 138.281 317.052Z" fill="currentColor"/>
<path d="M573.505 37.8361C531.137 17.4113 485.871 4.75379 438.962 0.20738C436.384 -0.0514433 433.84 0.740709 431.852 2.376C429.864 4.0126 428.609 6.37078 428.361 8.93549L417.128 124.899C416.61 130.235 420.519 134.981 425.856 135.498C456.774 138.492 486.592 146.83 514.484 160.274C515.81 160.915 517.252 161.239 518.699 161.239C519.779 161.239 520.861 161.057 521.902 160.695C524.332 159.847 526.327 158.065 527.444 155.746L578.033 50.7956C580.363 45.9669 578.336 40.1629 573.505 37.8361Z" fill="currentColor"/>
<path d="M744.63 200.702C745.257 198.204 744.87 195.562 743.547 193.35C719.453 153.043 688.733 117.555 652.243 87.8781C650.244 86.2546 647.694 85.4938 645.123 85.7513C642.562 86.0167 640.21 87.286 638.587 89.2834L565.074 179.668C563.451 181.666 562.685 184.227 562.95 186.788C563.213 189.349 564.483 191.7 566.482 193.326C590.626 212.959 610.946 236.431 626.881 263.09C628.7 266.13 631.92 267.819 635.225 267.819C636.92 267.819 638.636 267.375 640.196 266.442L740.197 206.666C742.405 205.345 744 203.2 744.63 200.702Z" fill="currentColor"/>
<path d="M781.757 278.613C780.152 273.495 774.702 270.644 769.59 272.251L658.416 307.085C653.298 308.687 650.451 314.134 652.054 319.249C660.033 344.721 664.079 371.327 664.079 398.327C664.079 402.302 663.979 406.358 663.778 410.724C663.658 413.295 664.565 415.812 666.301 417.714C668.036 419.617 670.455 420.753 673.026 420.87L789.407 426.247C789.561 426.253 789.713 426.257 789.864 426.257C795.02 426.257 799.313 422.201 799.556 416.998C799.855 410.521 800.003 404.414 800.003 398.327C800 357.524 793.864 317.247 781.757 278.613Z" fill="currentColor"/>
<path d="M399.657 377.719C397.982 377.719 396.317 377.774 394.658 377.863L236.946 284.81C233.085 282.529 228.185 283.101 224.951 286.203C221.714 289.302 220.938 294.175 223.047 298.125L309.08 459.374C308.764 462.48 308.595 465.616 308.595 468.779C308.595 493.103 318.067 515.97 335.266 533.169C352.466 550.369 375.334 559.84 399.658 559.84C423.982 559.84 446.849 550.366 464.048 533.169C481.248 515.97 490.718 493.103 490.718 468.779C490.718 444.455 481.246 421.588 464.048 404.389C446.849 387.191 423.98 377.719 399.657 377.719Z" fill="currentColor"/>
</svg>
